<svg id="Layer_1" data-name="Layer 1" xmlns="http://www.w3.org/2000/svg" viewBox="0 0 394.74 870.64"><defs><style>.cls-1,.cls-9{fill:#ff7bac;}.cls-10,.cls-2{fill:#ea1f46;}.cls-3{fill:#efcdb1;}.cls-4{fill:#020202;}.cls-5{stroke:#000;}.cls-10,.cls-5,.cls-9{stroke-miterlimit:10;}.cls-6{fill:#ed1e79;}.cls-7{fill:#fff;}.cls-8{fill:#03330e;}.cls-9{stroke:#ff7bac;}.cls-10{stroke:#ea1f46;stroke-width:2px;}</style></defs><path class="cls-1" d="M200.75,52.28c29.55,3.2,59.06,10.85,84.49,26.26s46.52,39.15,55,67.65c7.28,24.5,5,50.65,5.91,76.2,2.69,73.61,32.45,143.52,42.5,216.49,6.25,45.43,4.79,91.54,3.32,137.38-.95,29.6-1.92,59.36-7.55,88.44-9.47,48.87-32,95.68-31.66,145.46.07,8.81.56,18.58-5.13,25.3-3.31,3.9-8.19,6-12.93,8a355.75,355.75,0,0,1-224.6,13.63c-15.41-4.17-31-9.66-42.73-20.51-15.85-14.69-22.11-36.77-27.21-57.78a1443.41,1443.41,0,0,1-36.72-233c-1.64-22-2.77-44-1.12-66,4.75-63.34,32.35-123,39.48-186.14,3.93-34.83,1.56-70.12,4.92-105s13.38-70.81,37.76-96C114.9,61.19,162,52.2,205.73,53.33"/><path class="cls-1" d="M200.75,53.78c32.41,3.59,65.12,12.45,92,31.49,24.68,17.46,43.25,43,48.77,73,3.21,17.41,2.67,35.23,2.85,52.86a368.39,368.39,0,0,0,4,50.19c5,34,14.16,67.2,22.59,100.47,8.68,34.21,16.28,68.57,19,103.83,2.81,36.3,1.7,72.75.53,109.1-1.14,35.67-2.61,71.27-11.2,106.07-8.07,32.73-20.25,64.48-25.52,97.88a200.84,200.84,0,0,0-2.43,24.23c-.27,7.5.64,15.29-.85,22.7-1.82,9-8.24,13.17-16.22,16.43-7.77,3.17-15.69,6-23.68,8.61a354.84,354.84,0,0,1-197.34,5.76c-15.51-4.05-31.63-9.13-43.86-20-11.32-10-17.88-24-22.41-38.18-5-15.68-8.39-32-12-48q-5.83-26.34-10.68-52.88-9.8-53.64-15.52-107.92c-3.76-35.7-7.63-72.15-5.16-108.06C6.06,447,15.32,413.66,24.36,380.59c8.94-32.69,17.56-65.53,20.09-99.44,2.62-35.19.15-70.74,5.37-105.72C54.28,145.57,64.43,115.22,86,93.24c20.43-20.87,48.67-31.54,77.08-35.92a242.77,242.77,0,0,1,42.68-2.49c1.93.05,1.93-2.95,0-3-29-.68-58.74,2.72-85.47,14.51C92.84,78.43,72,99.76,60,127.2c-13,29.71-15.77,62.29-16.64,94.33-.5,18.57-.45,37.16-1.65,55.7A357.73,357.73,0,0,1,33.89,331c-7.56,34.45-18.68,68-26.09,102.49a334.38,334.38,0,0,0-7.31,51c-1.08,18.86-.23,37.77,1.1,56.6A1440,1440,0,0,0,34.05,759.4c6.55,28.74,12,63.28,37.12,82.28,12.44,9.42,27.78,14.11,42.7,17.94a352.37,352.37,0,0,0,49.95,9,359.33,359.33,0,0,0,100.81-3.52,352,352,0,0,0,49.52-12.51c7.78-2.58,15.53-5.38,23.08-8.59,6.28-2.68,11.94-6.27,14.68-12.79,2.62-6.24,2.41-13.22,2.36-19.84a191.37,191.37,0,0,1,1.54-25.88c2.24-17.48,6.68-34.62,11.53-51.54,4.8-16.74,10.07-33.36,14.33-50.26a345.9,345.9,0,0,0,8.94-52.92c1.71-18.39,2.28-36.85,2.88-55.3.6-18.72,1.19-37.45,1.25-56.19.11-36.55-2.28-72.87-9.4-108.77-6.94-35-17-69.26-25.1-104-4.07-17.51-7.64-35.16-9.95-53s-2.85-35.75-3-53.77c-.09-17.35-.43-34.95-5-51.79a109.41,109.41,0,0,0-19.05-37.7c-18.78-24.4-45.82-40.63-74.92-49.84a247.16,247.16,0,0,0-47.57-9.64c-1.92-.21-1.91,2.79,0,3Z"/><path class="cls-2" d="M67.68,464.73c3.86,0,3.87-6,0-6s-3.87,6,0,6Z"/><path class="cls-2" d="M63.53,463.69c3.86,0,3.87-6,0-6s-3.87,6,0,6Z"/><path class="cls-3" d="M348.68,646.9c2.13,98.64-37.34,164.79-149.55,158.05S59.5,780.77,48.4,667.16s40.18-163,142.35-173S346.55,548.26,348.68,646.9Z"/><path class="cls-4" d="M197.77,62.87c-4.87.81-10.09-.35-14.78,1.54a10.62,10.62,0,0,0-6.57,8.12c-.54,4.3,3,7,6.86,7.51a64.49,64.49,0,0,0,7.09.36c2.58.07,5.15.16,7.73.22,4.77.12,9.76,0,14.08-2.28a12.92,12.92,0,0,0,6.76-9,9.31,9.31,0,0,0-4.52-9.54c-3.15-1.91-7-2.36-10.65-2.5-5.42-.22-10.85-.19-16.27-.28a104.44,104.44,0,0,0-15.62.39c-8.27,1.1-17.42,5.38-20,14a14.81,14.81,0,0,0,1,10.93,12,12,0,0,0,9.6,6.32,71.35,71.35,0,0,0,7.74.33l8.48.18,16.72.34c5.07.11,10.17.38,15.23.22,4.1-.12,8.35-.67,12-2.67,7.9-4.33,8.54-13.56,7.14-21.52-.36-2-.84-4-1.37-6.06s-3.38-1.07-2.89.8c1.69,6.48,3.73,14.89-.53,20.84-4.48,6.25-13.54,5.73-20.34,5.59l-29.19-.61L168.22,86a32.51,32.51,0,0,1-6.9-.52A9,9,0,0,1,154.73,79c-2.08-7.11,2.94-13.26,9.06-16.22,8.12-3.91,18-2.8,26.7-2.66,4.59.07,9.2,0,13.78.25,3.09.16,6.56.55,9.15,2.4a6.4,6.4,0,0,1,1.9,8.21c-1.67,3.49-5,5.38-8.66,6.16-4.15.88-8.51.51-12.71.38l-7.16-.21a13.09,13.09,0,0,1-5.35-.82c-3.19-1.53-2.14-5.19-.17-7.29,2.8-3,7.06-2.92,10.87-3a41.87,41.87,0,0,0,6.43-.46c1.9-.32,1.09-3.21-.8-2.89Z"/><path class="cls-4" d="M142.75,63.34l-.1,16.81c0,2.5-.3,5.23.46,7.66a9.41,9.41,0,0,0,4,5c3.93,2.62,8.78,3.76,13.4,4.38,5.15.7,10.37.82,15.55,1.09,11.07.58,22.14,1.2,33.21,1.72,4.74.23,9.63.31,14.22-1.07a20.44,20.44,0,0,0,10.54-7.41c6.84-9,6.1-20.89,5.16-31.56-.17-1.91-3.17-1.92-3,0,.8,9.07,1.69,18.94-2.91,27.22a18.45,18.45,0,0,1-8.43,8.07c-4,1.82-8.66,2-13,1.85-10.19-.27-20.38-1-30.56-1.55-5-.26-10.07-.47-15.1-.81a46.59,46.59,0,0,1-13.45-2.47c-2.09-.79-4.48-1.87-5.91-3.66-1.62-2-1.21-5-1.19-7.42l.1-17.8a1.5,1.5,0,0,0-3,0Z"/><path class="cls-3" d="M333.22,250.31C336,332.07,272.68,384.49,199,386S62.83,325.84,61.78,247.74,120,112.38,198.93,110.29,330.48,168.55,333.22,250.31Z"/><path d="M61.71,246.58c-2.37-41.15,17.91-82.91,51.73-106.48a145,145,0,0,1,18.9-11,180.56,180.56,0,0,1,85.71-18.37c18.28.64,36.88,4.25,52.49,13.77,15.43,9.42,27,23.94,38.14,38.14,6.32,8,12.73,16.21,16.5,25.71,4,10.09,4.82,21.13,5.59,32Q332,238.14,333.3,256l-13.7-20.77c-2-3.09-4.13-6.23-7-8.53-4-3.18-9.15-4.46-13.8-6.57-13.09-6-22.11-18.71-26.82-32.3s-5.67-28.15-6.58-42.51l-11.24,21c-11.79,22-24.78,45.32-46.82,57.11-21.84,11.67-48.15,9.7-72.79,7.29-15.5-1.52-32.84-2.56-44.82,7.39-4.13,3.45-7.27,8-11.44,11.37s-10.1,5.56-14.94,3.22-6.14-10.57-1.27-12.87"/><path d="M63.21,246.58a121.88,121.88,0,0,1,19.53-72.31,119.63,119.63,0,0,1,25.44-28.37c11.47-9.24,24.83-16.2,38.52-21.53a179.36,179.36,0,0,1,43.61-11,165.07,165.07,0,0,1,44.35.29c14.17,2.16,28,6.79,39.71,15.11C285.93,137,295.16,148,303.91,159c9.09,11.43,18.63,22.89,22.25,37.36,1.88,7.51,2.49,15.25,3,23q.89,12.4,1.76,24.82L331.8,256l2.8-.76-8.5-12.87c-2.66-4-5.19-8.23-8.11-12.09a25.1,25.1,0,0,0-9.86-7.94c-3.82-1.72-7.84-2.94-11.51-5-14.52-8.1-22.44-24-26-39.66-2.39-10.63-3.08-21.53-3.77-32.37-.09-1.4-2.05-2.15-2.8-.76-4.74,8.87-9.44,17.77-14.25,26.61-4,7.37-8.17,14.67-12.88,21.62-9.38,13.84-21.35,26.28-37.18,32.49-17.18,6.74-36.12,6.39-54.22,4.94-16.4-1.3-34.71-5-50.19,2.5a35.58,35.58,0,0,0-10.06,7.51c-3.09,3.21-5.91,6.91-9.71,9.35-3.33,2.14-8,3.73-11.78,1.7A7,7,0,0,1,60.6,244a4,4,0,0,1,2.21-2.89c1.73-.87.21-3.46-1.51-2.59-6.35,3.21-4.08,13.1,1.65,15.63,4,1.77,8.48,1,12.27-.93,4.19-2.1,7.34-5.65,10.47-9.05A38.24,38.24,0,0,1,96,235.77a39,39,0,0,1,12.12-3.8c8.73-1.38,17.71-.6,26.45.26,19,1.85,38.6,3.54,57.29-1.25a70.84,70.84,0,0,0,24.7-11.61,92.78,92.78,0,0,0,18-18.05c11.37-14.75,19.61-31.72,28.36-48.08l3.83-7.16-2.79-.76c1.17,18.38,2.45,37.58,11.57,54a54.87,54.87,0,0,0,15.21,17.73,46.65,46.65,0,0,0,10.64,5.72c4.09,1.61,8.37,3.06,11.6,6.18,3.77,3.64,6.41,8.53,9.27,12.88l9.83,14.9c.76,1.15,2.91.82,2.8-.76L333,230.56c-.58-8.11-1-16.25-2-24.31a72.49,72.49,0,0,0-6.06-22.2c-3.22-6.76-7.67-12.83-12.24-18.73-8.85-11.41-17.78-23-28.65-32.64a89.37,89.37,0,0,0-37.9-19.77c-14.57-3.63-29.86-4.4-44.81-3.52a182.9,182.9,0,0,0-45.25,8.46,165.6,165.6,0,0,0-42.15,20.08,120.71,120.71,0,0,0-28.18,26.83A125.76,125.76,0,0,0,60.07,237c-.09,3.19,0,6.38.14,9.56.11,1.92,3.11,1.93,3,0Z"/><path d="M132,248.75c4.62-5.76,11.93-8.12,19.06-8.77s14.87-.1,21.5,2.83a22.08,22.08,0,0,1,9.25,7.24c1.11,1.56,3.71.06,2.59-1.52-4.67-6.56-12.24-9.9-20-11.11s-16.3-1-23.73,1.77a24.58,24.58,0,0,0-10.78,7.44c-1.2,1.49.91,3.63,2.12,2.12Z"/><path d="M232.18,254.19c10.26-9.15,25.67-11.18,38.33-6.27a33.89,33.89,0,0,1,9.78,5.89c1.45,1.25,3.58-.86,2.12-2.13-11.27-9.74-28-12-41.67-6.29a37.69,37.69,0,0,0-10.69,6.68c-1.44,1.29.69,3.4,2.13,2.12Z"/><path d="M136.7,278.7c3.54-6.62,10.31-13.53,18.45-12.83,8,.69,12.75,8.65,16.38,14.85a1.5,1.5,0,0,0,2.59-1.52c-3.33-5.69-7.23-12.05-13.48-14.88-6.57-3-13.53-1-18.92,3.42a31.21,31.21,0,0,0-7.61,9.44c-.91,1.7,1.68,3.22,2.59,1.52Z"/><ellipse class="cls-5" cx="153.81" cy="277.5" rx="13" ry="12" transform="translate(-144.06 386.75) rotate(-81.14)"/><path d="M239.27,278.32c3.83-6.47,11.17-13.31,19.34-11.9,7.76,1.34,12,9.22,15.36,15.55.9,1.7,3.49.19,2.59-1.52-3-5.77-6.6-12.12-12.57-15.29-6.38-3.39-13.64-1.77-19.19,2.44a31.56,31.56,0,0,0-8.12,9.21,1.5,1.5,0,0,0,2.59,1.51Z"/><ellipse class="cls-5" cx="256.37" cy="277.92" rx="13" ry="12" transform="translate(-66.54 474.64) rotate(-78.66)"/><path class="cls-6" d="M282,330.84c-5,10.39-17.31,14-28.19,9.07S239,322,245.15,311.4s17.91-15.75,28.51-9.75S287,320.45,282,330.84Z"/><path class="cls-7" d="M338.42,398.92c-3.92,9.78-15.75,13.12-24.77,8.15s-13-16.9-8.5-26.56,16.65-15,26.16-9S342.35,389.15,338.42,398.92Z"/><path class="cls-6" d="M167.55,322.19c-.14,11.53-9.81,20-21.75,20.11s-21-10.06-19.85-22.21,9.6-21.83,21.74-20.86S167.69,310.67,167.55,322.19Z"/><path class="cls-7" d="M116.88,408.81c1,9.09-6.88,16.3-16.63,16.2s-16.79-8.5-15.76-18.25,7.4-18.42,17.15-17S115.9,399.71,116.88,408.81Z"/><path class="cls-4" d="M189.6,314.4l.51.16.25.1c.27.1-.31-.14,0,0s.62.3.92.47l.41.27.22.16c.08.05.3.26,0,0,.27.24.55.46.8.72l.67-2.51-.37.07.4-.05a4,4,0,0,1-1,0l.4.06a5.22,5.22,0,0,1-.94-.25c-.27-.09.34.17.09,0l-.2-.1-.42-.25c-.05,0-.27-.21-.06,0s0,0-.07-.07-.22-.21-.32-.32l-.14-.17.06.07a4.17,4.17,0,0,1-.26-.46v1.52a2.39,2.39,0,0,1,.13-.21c.09-.16-.12.16-.13.17a.31.31,0,0,0,.07-.09s.16-.11.17-.16-.32.23-.17.13l.12-.07.21-.11c.13-.08-.35.12-.2.08l.11,0a2.57,2.57,0,0,1,.48-.11l-.4.05a3.3,3.3,0,0,1,.77,0l-.39-.05a4.85,4.85,0,0,1,.63.16c-.45-.13-.27-.12-.15-.06l.16.09.12.07c.24.15-.23-.2-.12-.09a2.39,2.39,0,0,1,.23.22c.16.17-.22-.33-.09-.12a.57.57,0,0,1,.08.13.54.54,0,0,1,.07.13c.13.22-.11-.36,0-.11a2.66,2.66,0,0,1,.1.38l-.06-.4a2.43,2.43,0,0,1,0,.66l.06-.4a3.15,3.15,0,0,1-.09.42c0,.06-.05.12-.07.19s.19-.38,0-.12-.14.26-.22.38-.24.21.07-.09c0,.05-.09.11-.14.15s-.19.18-.29.28c.3-.29.2-.16.09-.08l-.17.11a1,1,0,0,0-.18.09c.37-.23.25-.1.11-.06a2.46,2.46,0,0,1-.45.11l.4-.06a2.53,2.53,0,0,1-.55,0l.4.06a3.57,3.57,0,0,1-.47-.11c-.14,0-.27-.17.1.05l-.19-.09-.17-.11c-.29-.18.12.13.05.05a3.19,3.19,0,0,1-.33-.31l-.14-.16c.31.32.14.19.07.08a3.62,3.62,0,0,1-.24-.43c-.12-.22.12.36,0,.1,0-.06,0-.13-.07-.2a2.46,2.46,0,0,1-.1-.47l.06.39a2.66,2.66,0,0,1,0-.69l-.05.4a1.86,1.86,0,0,1,.07-.34l-1.45,1.1,2.41-.31a1.69,1.69,0,0,0,1.06-.44,1.52,1.52,0,0,0,.44-1.06,1.5,1.5,0,0,0-.44-1.07,1.45,1.45,0,0,0-1.06-.43l-2.41.31a1.7,1.7,0,0,0-.91.32,1.46,1.46,0,0,0-.53.78,4.58,4.58,0,0,0,2.83,5.36,3.78,3.78,0,0,0,3.18-.26,4.55,4.55,0,0,0,2-2.41,3.65,3.65,0,0,0-2.47-4.89,4.15,4.15,0,0,0-2.63.07,3.8,3.8,0,0,0-1.38.85,3.72,3.72,0,0,0-.49.62,1.69,1.69,0,0,0,0,1.8,5.65,5.65,0,0,0,6.18,2.72,1.5,1.5,0,0,0,.66-2.5,10.34,10.34,0,0,0-4.39-2.63,1.52,1.52,0,0,0-1.84,1.05,1.53,1.53,0,0,0,1,1.85Z"/><path class="cls-4" d="M206.76,318.27l3,.49a1.64,1.64,0,0,0,1-.07,1.48,1.48,0,0,0,.72-.61,2.93,2.93,0,0,0,.33-.94,3.55,3.55,0,0,0,0-1.34,3.68,3.68,0,0,0-.9-1.75,3.17,3.17,0,0,0-3.91-.74,3.43,3.43,0,0,0-1.4,1.35,3.57,3.57,0,0,0-.52,1.91,3.25,3.25,0,0,0,.83,2.09,2.87,2.87,0,0,0,.74.6,3.78,3.78,0,0,0,.88.36,3.56,3.56,0,0,0,3.92-1.48,1.5,1.5,0,0,0-2.59-1.51l-.11.16.23-.31a1.7,1.7,0,0,1-.3.3l.31-.24a1.8,1.8,0,0,1-.4.23l.36-.15a1.79,1.79,0,0,1-.56.15l.4,0a2.15,2.15,0,0,1-.62,0l.4,0a2.73,2.73,0,0,1-.56-.15l.36.15a1.9,1.9,0,0,1-.39-.23l.3.23a1.64,1.64,0,0,1-.3-.29l.24.3a1.3,1.3,0,0,1-.22-.38l.15.36a1.6,1.6,0,0,1-.11-.39l.05.4a1.81,1.81,0,0,1,0-.52l-.06.39a2.16,2.16,0,0,1,.16-.55l-.15.36a2.1,2.1,0,0,1,.29-.5l-.24.31a2.28,2.28,0,0,1,.38-.38l-.31.23a2.22,2.22,0,0,1,.42-.25l-.36.15a3,3,0,0,1,.43-.12l-.4.06a1.89,1.89,0,0,1,.41,0l-.4-.05a1.94,1.94,0,0,1,.43.11l-.35-.15a2.86,2.86,0,0,1,.42.24l-.31-.23a2.22,2.22,0,0,1,.41.4l-.24-.3a2.55,2.55,0,0,1,.3.5l-.16-.36a2.16,2.16,0,0,1,.16.55l-.06-.4a1.62,1.62,0,0,1,0,.49l.05-.4a2.09,2.09,0,0,1-.11.43l.15-.36-.07.15,1.69-.69-3-.49a1.64,1.64,0,0,0-1.15.15,1.5,1.5,0,0,0-.54,2.05,1.46,1.46,0,0,0,.89.69Z"/><path class="cls-2" d="M179.28,346.08c18,4.92,36.8,6.15,55.06,1.95,1.88-.43,1.09-3.32-.8-2.89-17.74,4.07-36,2.83-53.46-2a1.51,1.51,0,0,0-.8,2.9Z"/><path class="cls-2" d="M197.78,347.39a6.05,6.05,0,0,1,1.95-8.19,4.24,4.24,0,0,1,4.32-.13,2.73,2.73,0,0,1,.7,3.94l1.65-2.26c1.94-2.65,5.22-5.62,8-3.92,1.86,1.13,2.15,3.87,1.21,5.84s-2.77,3.33-4.53,4.62"/><path class="cls-2" d="M199.08,346.64a4.6,4.6,0,0,1,.71-5.62,3.14,3.14,0,0,1,3-.88c.6.2,1.43,1.15.88,1.81l2.35,1.81a24.16,24.16,0,0,1,4-4.76c1-.82,2.64-1.74,3.83-.72,1,.85.92,2.53.46,3.63-.76,1.76-2.5,3-4,4.08a1.54,1.54,0,0,0-.53,2.05,1.5,1.5,0,0,0,2.05.54c2.17-1.59,4.45-3.32,5.4-5.95a6.16,6.16,0,0,0-1.32-6.52c-2-1.79-4.73-1.49-6.84-.11-2.41,1.57-4,4-5.66,6.25-1,1.36,1.26,3.12,2.36,1.82a4.23,4.23,0,0,0-.34-5.77c-1.7-1.65-4.42-1.53-6.38-.45a7.55,7.55,0,0,0-2.6,10.3c1,1.64,3.61.13,2.59-1.51Z"/><path class="cls-2" d="M199.77,350.58a14.8,14.8,0,0,0-.56,5.52,5.09,5.09,0,0,0,3.2,4.22c2.22.67,4.62-.93,5.65-3s1-4.5,1-6.82"/><path class="cls-2" d="M198.32,350.18a16,16,0,0,0-.52,6.53,6.8,6.8,0,0,0,3,4.49,5.5,5.5,0,0,0,5.43.07,7.68,7.68,0,0,0,3.59-4.19,17.72,17.72,0,0,0,.79-6.6,1.5,1.5,0,0,0-3,0c0,.8,0,1.6,0,2.39q0,.6-.09,1.2s0,.29,0,.1a1.87,1.87,0,0,1,0,.25c0,.22-.08.44-.13.66a10.54,10.54,0,0,1-.34,1.13,7.37,7.37,0,0,1-.4.78c-.08.14-.18.28-.28.42.15-.2-.13.15-.17.2l-.36.36c-.05,0-.44.37-.25.23a5.73,5.73,0,0,1-.79.48l-.14.07-.08,0-.53.15s-.29.05,0,0h-.2a3.84,3.84,0,0,1-.48,0s-.24,0-.08,0-.1,0-.14,0a2.54,2.54,0,0,1-.47-.14c.24.09-.15-.09-.21-.13s-.4-.29-.21-.13a3.89,3.89,0,0,1-.36-.34l-.14-.15c-.3-.32.06.11-.08-.09a6.38,6.38,0,0,1-.51-.87c-.08-.15,0,0,0,0a1.19,1.19,0,0,1-.08-.2c-.07-.18-.12-.37-.17-.55-.45-1.73,0-3.58.43-5.36a1.5,1.5,0,0,0-2.9-.8Z"/><path class="cls-2" d="M184.67,389.45c-1.76,9.74-5.54,18.91-9.28,28-3.35,8.15-6.94,16.58-13.29,22.89a26.78,26.78,0,0,1-11.24,6.9c-3.7,1.07-2.12,6.86,1.6,5.78,8.93-2.59,15.84-9.34,20.65-17.09a96.57,96.57,0,0,0,6.77-13.77c2-4.71,3.93-9.44,5.72-14.23A98.37,98.37,0,0,0,190.45,391a3.08,3.08,0,0,0-2.09-3.69,3,3,0,0,0-3.69,2.1Z"/><path class="cls-2" d="M148.24,449.88a92.34,92.34,0,0,0-69.49,8.47c-3.37,1.89-.35,7.07,3,5.18A87.12,87.12,0,0,1,132.27,453a82.51,82.51,0,0,1,14.37,2.68c3.73,1,5.32-4.76,1.6-5.79Z"/><path class="cls-2" d="M80.15,469.42a238.36,238.36,0,0,0,53.76-8.89c4.94-1.41,9.82-3,14.66-4.73a3.1,3.1,0,0,0,2.2-2.89,3,3,0,0,0-2.2-2.9,107.4,107.4,0,0,0-51.39,1.32,103.28,103.28,0,0,0-12.09,4.16c-1.06.44-2.11.88-3.15,1.35a9.74,9.74,0,0,0-3,1.66c-2.17,2.13-1.4,5.14.93,6.76,7.06,4.91,16.45,1.89,23.69-.85a123.07,123.07,0,0,1,29.09-7.58,3,3,0,0,0,0-6c-14.4-1.28-30.52-2.23-43,6.47a3,3,0,0,0-1.43,3,3,3,0,0,0,2.14,2.5,43,43,0,0,0,21.35-.77c2.68-.8,3-5.18,0-5.79a52.35,52.35,0,0,0-32.57,4,3,3,0,0,0-1.08,4.11,3.07,3.07,0,0,0,4.11,1.07,45.49,45.49,0,0,1,28-3.38v-5.79A36.54,36.54,0,0,1,92,457l.72,5.48c11.59-8.08,26.61-6.83,40-5.65v-6a118.41,118.41,0,0,0-24.6,5.54c-3.66,1.26-7.23,2.8-10.92,4-3.14,1-6.61,1.87-9.89,1.41a12.38,12.38,0,0,1-2.25-.57c-.26-.1-.5-.19-.75-.31s-1-.55-1-.53l-.11,1.29c-.47,1.12-.45,1.52,0,1.21a1.91,1.91,0,0,0,.56-.26L85,462c.84-.37,1.68-.74,2.53-1.08a101.62,101.62,0,0,1,33.75-7.35A99.63,99.63,0,0,1,147,455.8V450a231.38,231.38,0,0,1-51.7,12.17q-7.55.87-15.12,1.24a3,3,0,0,0,0,6Z"/><path class="cls-2" d="M78.32,461.46c-7-6.06-15.7-9.14-24.59-11.16-4.7-1.07-9.49-2.08-14.28-2.68a29.36,29.36,0,0,0-14.72,1.86,74.14,74.14,0,0,0-14.12,8.11,3.09,3.09,0,0,0-1.07,4.11,3,3,0,0,0,4.1,1.08c7.1-4.88,14.65-10,23.65-9.38a94.57,94.57,0,0,1,13.24,2.33,86.55,86.55,0,0,1,12,3.36,37.14,37.14,0,0,1,11.51,6.62,3.09,3.09,0,0,0,4.25,0,3,3,0,0,0,0-4.25Z"/><path class="cls-2" d="M9.57,466.43l53.63,2.4,15.4.7a3,3,0,0,0,2.12-5.13c-15-13.76-36.41-14.1-55.51-11.7-4.55.57-11.35.63-13.59,5.57-.71,1.57-.3,4.06,1.79,4.41a156,156,0,0,0,48.51.47c3-.44,2.7-5.12,0-5.79a102.25,102.25,0,0,0-42.69-1.28,3,3,0,0,0-2.1,3.69,3.08,3.08,0,0,0,3.7,2.09,94.92,94.92,0,0,1,39.49,1.29v-5.79A146.49,146.49,0,0,1,15,456.89l1.79,4.41c.28-.61.33-.73.77-1a6.1,6.1,0,0,1,2.07-.76,56.18,56.18,0,0,1,6.05-.89,142,142,0,0,1,14.41-1.15c8.59-.18,17.33.78,25.31,4.15a38.84,38.84,0,0,1,11.07,7l2.12-5.12L25,461.12l-15.39-.69a3,3,0,1,0,0,6Z"/><path class="cls-2" d="M151.65,447.39c-1.45-9.27,4.4-18.18,10-25,6.12-7.47,12.7-14.42,16.53-23.42a45,45,0,0,1,2.87-6,8.94,8.94,0,0,1,1.64-2.14,6.5,6.5,0,0,1,2-1.3,3.1,3.1,0,0,0,2.1-3.69,3,3,0,0,0-3.69-2.1c-4.46,1.68-7,5.39-8.93,9.59-.92,2-1.73,4.16-2.75,6.17a50.08,50.08,0,0,1-4,6.43c-6.08,8.45-14.07,15.51-18.54,25.07a30.63,30.63,0,0,0-3,18c.25,1.6,2.26,2.49,3.69,2.09a3.08,3.08,0,0,0,2.1-3.69Z"/><path class="cls-2" d="M179.8,389.34A89.63,89.63,0,0,1,150,438.57l4.71.61c-.38-.69,0,.15-.25-.57l-.08-.32c0,.2,0,.19,0,0a4,4,0,0,1,0-.49c0,.19,0,.19,0,0a6.17,6.17,0,0,1,.21-.82,10.2,10.2,0,0,1,1.71-2.8,82.23,82.23,0,0,1,6.45-6.21,77.8,77.8,0,0,0,12-15.09l-5.6-1.51c.42,7.71-.12,15.86-3.69,22.87-2.94,5.77-7.77,10.65-14,12.5l2.92,5a113.71,113.71,0,0,0,16.52-24.77,3,3,0,0,0-.77-3.87,3,3,0,0,0-3.94.24l-16.89,19.49a3.09,3.09,0,0,0,0,4.25,3,3,0,0,0,4.24,0l16.89-19.5-4.71-3.64a107.72,107.72,0,0,1-15.58,23.56c-1.88,2.15-.12,5.92,2.91,5,7.6-2.25,13.77-8,17.41-14.92,4.21-8,5.17-17.3,4.68-26.23a3,3,0,0,0-5.59-1.52,71.13,71.13,0,0,1-13,15.65c-4.57,4.14-10.79,10.07-7.09,16.76a3,3,0,0,0,4.71.61,96.07,96.07,0,0,0,27.51-39,91.81,91.81,0,0,0,3.85-12.86,3.07,3.07,0,0,0-2.09-3.69,3,3,0,0,0-3.69,2.1Z"/><path class="cls-2" d="M186,391.48c3.86,0,3.87-6,0-6s-3.87,6,0,6Z"/><path class="cls-2" d="M187,391c3.86,0,3.87-6,0-6s-3.87,6,0,6Z"/><path class="cls-2" d="M186,390.48c3.86,0,3.87-6,0-6s-3.87,6,0,6Z"/><path class="cls-2" d="M207.5,389.34q5.82,12.71,11.88,25.29c1.81,3.75,3.63,7.55,6.85,10.31,3.42,2.94,7.48,5.19,11.26,7.62l13.28,8.55a3,3,0,1,0,3-5.18l-11.41-7.35c-3.66-2.35-7.48-4.57-11-7.15-3.11-2.28-4.76-5.54-6.41-8.93q-3-6.13-5.85-12.28-3.27-6.93-6.46-13.91a3,3,0,0,0-5.18,3Z"/><path class="cls-2" d="M210.09,389.08l38,46.7,3.63-4.71L241.17,424c-3.06-2.06-6.23-4-9.09-6.35-4.86-4-9.57-10-7.36-16.59l-5,1.33c4.88,5.83,7.79,13,11.89,19.32,4,6.17,9,11.6,16,14.31a3,3,0,0,0,3.69-2.1,3.07,3.07,0,0,0-2.09-3.69c-5.89-2.29-10.07-7.66-13.27-12.88-4-6.46-7.09-13.35-12-19.2-1.55-1.85-4.36-.64-5,1.32-2.72,8.11,1.91,16.37,7.93,21.6a100.69,100.69,0,0,0,10.25,7.41l11.56,7.77a3,3,0,0,0,3.87-.77,3,3,0,0,0-.23-3.94l-38-46.7a3,3,0,0,0-4.25,0,3.08,3.08,0,0,0,0,4.24Z"/><path class="cls-2" d="M253.63,441.27q26.26,4.89,52.84,7.85c5.06.56,10.11,1.07,15.18,1.52a3,3,0,0,0,3-3,3.07,3.07,0,0,0-3-3q-25.93-2.34-51.65-6.56-7.39-1.23-14.77-2.6a3.07,3.07,0,0,0-3.69,2.1,3,3,0,0,0,2.09,3.69Z"/><path class="cls-2" d="M248.85,439.93c5.2,7.79,14,11.63,22.79,13.8a157.68,157.68,0,0,0,33.45,4.16c2.86.07,5.71.07,8.57,0a23.71,23.71,0,0,0,7.11-1c2.52-.89,5.3-2.58,5.93-5.37s-1.66-5.11-4.21-6a28.41,28.41,0,0,0-8.07-.95,71.44,71.44,0,0,0-8.65.38c-5.59.55-11.14,1.52-16.75,2-9.39.76-20-.08-26.75-7.18l-2.92,5c17.45,5.58,35.58,11.24,54.14,9.58a3.08,3.08,0,0,0,3-3,3,3,0,0,0-3-3C295.43,450,277.92,444.46,261,439,258,438.09,256,442,258,444c6.07,6.37,14.85,8.74,23.4,9.11,9.88.42,19.56-2.13,29.39-2.49a48.63,48.63,0,0,1,7.91.27,13.18,13.18,0,0,1,1.4.23,6,6,0,0,1,.61.15c.13,0,.48.05.17.06.3,0,.19.35.13,0,0-.15-.15-.27-.18-.42a10,10,0,0,1,.15-1,7.36,7.36,0,0,1-.55.51,9.65,9.65,0,0,1-5,1.36c-2.46.15-4.94.14-7.41.13a162,162,0,0,1-31.52-3.27c-8.34-1.71-17.62-4.5-22.48-11.77a3.08,3.08,0,0,0-4.11-1.08,3,3,0,0,0-1.07,4.11Z"/><path class="cls-2" d="M327.39,453.46c15.26-4.43,30.5-10.93,46.59-11.34a50.43,50.43,0,0,1,13.07,1.31c3.75.91,5.35-4.88,1.59-5.78-16.58-4-33.29.75-49.09,5.75-4.57,1.46-9.14,2.94-13.75,4.27-3.7,1.08-2.13,6.87,1.59,5.79Z"/><path class="cls-2" d="M324.47,453.57a79.5,79.5,0,0,0,53.9-1.69,78.24,78.24,0,0,0,14.05-7.27,3,3,0,0,0,1.43-3,2.92,2.92,0,0,0-2.14-2.49,75.37,75.37,0,0,0-47.75,9,3.06,3.06,0,0,0-1.38,3.39,3.15,3.15,0,0,0,2.89,2.2,143.75,143.75,0,0,0,21.55,1c3.21-.1,6.68-.4,9.35-2.36a8.57,8.57,0,0,0,3.64-8.63c-.31-1.71-2.21-2.35-3.69-2.1l-35.08,6a3,3,0,0,0,1.6,5.79l35.08-5.95-3.69-2.1c-.06-.33,0,.45,0,.19s-.08.37-.11.45a4.88,4.88,0,0,1-.34.69,4.27,4.27,0,0,1-2.35,1.53c-2.49.75-5.27.58-7.84.6a144.33,144.33,0,0,1-18.12-1.06l1.52,5.59a68.68,68.68,0,0,1,43.12-8.36l-.72-5.48A74.37,74.37,0,0,1,340.17,451a71.62,71.62,0,0,1-14.1-3.19,3,3,0,1,0-1.6,5.78Z"/><path class="cls-7" d="M194,393.42c-3.63,16.69-7.85,34.31-19.12,47.69a49.61,49.61,0,0,1-9.7,8.95,3.08,3.08,0,0,0-1.08,4.11,3,3,0,0,0,4.1,1.07c15-10.32,23-27.21,27.75-44.26,1.47-5.28,2.67-10.62,3.83-16a3.06,3.06,0,0,0-2.09-3.69,3,3,0,0,0-3.69,2.09Z"/><path class="cls-7" d="M194.75,396.52c4,7.92,1.87,17.35-2,24.88a93.48,93.48,0,0,1-7.32,11.73,92.43,92.43,0,0,1-8.25,10.14,56.21,56.21,0,0,1-11.28,9.3l3,5.18c4.25-2.92,8.52-5.81,12.75-8.75,3.94-2.75,7.32-5.79,9.7-10s3.86-8.62,5.55-13q2.79-7.25,5.43-14.55H196.6a41.41,41.41,0,0,1,.46,6.86c0,1.78,0,3.59-1,5.14a55.33,55.33,0,0,1-4.22,5.22l-4.44,5.39c-2.72,3.29-5.36,6.69-8.3,9.8a25,25,0,0,1-8.57,6.43,3.08,3.08,0,0,0-2.09,3.69c.39,1.43,2.17,2.7,3.69,2.1,8.77-3.52,14.33-11.51,20.15-18.55l5.08-6.15c1.55-1.89,3.43-3.76,4.48-6a17.69,17.69,0,0,0,1.18-7.57,50.6,50.6,0,0,0-.67-8,3,3,0,0,0-2.9-2.21,3.11,3.11,0,0,0-2.89,2.21q-2.46,6.84-5.08,13.64a99.25,99.25,0,0,1-5.09,12.08c-2.05,3.78-5,6.33-8.48,8.74q-6,4.14-12,8.25a3.08,3.08,0,0,0-1.08,4.11,3,3,0,0,0,4.1,1.07c8.35-5.12,15-12.37,20.71-20.22,6-8.2,11.63-17.19,13-27.44a28.39,28.39,0,0,0-2.69-16.6,3,3,0,0,0-5.18,3Z"/><path class="cls-7" d="M164.06,455.09c-.16,6.41-3.33,12.41-7.37,17.24a49.05,49.05,0,0,1-13.89,11.39c-11.75,6.5-25.7,8.08-38.81,5.63a72.08,72.08,0,0,1-11.8-3.24c-2.83-1.05-5.91-2.5-7.74-5l-2.59,4.51c14.71.85,29.48,3.45,44.22,1.52,11.39-1.48,22.7-6,30.79-14.4a33.5,33.5,0,0,0,8.88-16.24H160a3.37,3.37,0,0,1-.33,2.73,13.26,13.26,0,0,1-2.41,3.25c-2.4,2.52-5.06,4.81-7.6,7.19l-7.8,7.31c-2.46,2.31-4.84,4.85-7.49,6.95-2.34,1.86-5.13,2-8,2.2s-5.91.47-8.88.62a92.3,92.3,0,0,1-17.51-.5,43,43,0,0,1-18-6.5,3,3,0,0,0-4.1,1.07,3.06,3.06,0,0,0,1.07,4.11c11,7.32,24.63,8.41,37.48,7.86,3.32-.14,6.62-.38,9.92-.66,3.56-.3,7.23-.48,10.3-2.49s5.8-5,8.53-7.57l8.34-7.82a116.64,116.64,0,0,0,8.79-8.43c2.64-3.05,4.61-6.8,3.45-10.92-.77-2.73-5.16-3-5.78,0-2.09,9.93-9.57,17.15-18.57,21.62-10.94,5.43-23.67,5.77-35.8,5-7.92-.5-15.81-1.45-23.74-1.91-2.13-.12-3.92,2.7-2.59,4.51,4.48,6.1,12.24,8.46,19.29,10.17a70.72,70.72,0,0,0,23.9,1.79c14.13-1.47,27.88-7.64,37.44-18.34,5.62-6.29,9.94-14.07,10.16-22.67.09-3.87-5.91-3.86-6,0Z"/><path class="cls-7" d="M76.4,477.61a75.41,75.41,0,0,1-28.64,9.44c-8.42.94-17.4.4-25.07-3.15a31.23,31.23,0,0,1-6.18-3.7c-1.22-.95-3.94-2.89-3.74-4.51l-4.52,2.6a91.65,91.65,0,0,0,52.5,6.55A86.9,86.9,0,0,0,75,481.12l-2.31-5.48a85.1,85.1,0,0,1-50.85,6.77,3.09,3.09,0,0,0-3.69,2.1,3,3,0,0,0,2.1,3.69,92.15,92.15,0,0,0,55.47-7.38c3-1.44.9-6.62-2.31-5.48a85.19,85.19,0,0,1-48.93,2.29,81.3,81.3,0,0,1-13.23-4.53,3.05,3.05,0,0,0-4.51,2.59c-.36,3,1.81,5.42,3.82,7.3a35.08,35.08,0,0,0,6,4.46,41.93,41.93,0,0,0,13.66,5c10.38,1.94,21.17.82,31.26-2.1a83.34,83.34,0,0,0,18-7.57c3.36-1.9.34-7.09-3-5.18Z"/><path class="cls-7" d="M197.84,416.65a38.65,38.65,0,0,0,39.59,36.85c3.31-.08,4.17-5.06.8-5.89l-2.4-.6-.8,5.89,4-.38c2.21-.22,3.8-2.4,2.59-4.52-3.51-6.12-9.79-9.46-15.67-12.92a37,37,0,0,1-8-5.8,55.06,55.06,0,0,1-6.42-8.61c-2.38-3.62-4.87-7.26-8.17-10.11a3,3,0,0,0-5,2.92,91.47,91.47,0,0,0,4.08,13.77,36.22,36.22,0,0,0,7,11.79,30.78,30.78,0,0,0,22.19,9.65c2.49,0,4.11-3.36,2.12-5.12a82.84,82.84,0,0,0-22.54-14.34,3.12,3.12,0,0,0-4.11,1.08c-.73,1.26-.42,3.47,1.08,4.1a78.15,78.15,0,0,1,21.33,13.4l2.12-5.12a24.87,24.87,0,0,1-18.21-8.17,29.91,29.91,0,0,1-5.51-9.7,95.61,95.61,0,0,1-3.77-12.93l-5,2.92c5.62,4.84,8.57,11.9,13.4,17.43,4.61,5.27,11,8.09,16.77,11.82a21,21,0,0,1,7.14,7l2.59-4.51-4,.38a3,3,0,0,0-2.94,2.6,3,3,0,0,0,2.14,3.3l2.4.59.8-5.89a32.58,32.58,0,0,1-33.59-30.85,3.06,3.06,0,0,0-3-3,3,3,0,0,0-3,3Z"/><path class="cls-7" d="M240.69,454.4c7.73,8.46,16,17.14,27.2,20.84,6.29,2.09,13,2.31,19.6,2.63A159.26,159.26,0,0,0,307,478a73.12,73.12,0,0,0,11.13-1.58,7.51,7.51,0,0,0,4.29-2.33,4.12,4.12,0,0,0-.07-5.6l-.6,4.71-1.71.05a1.31,1.31,0,0,1-.7-1.18c-.07.05-.28.67-.37.81a13.08,13.08,0,0,1-.9,1.42,11.1,11.1,0,0,1-1,1.15,15.12,15.12,0,0,1-1.44,1.33,20.2,20.2,0,0,1-6,3.08c-5.33,1.74-10.56,1.94-16.23,1.84-12.54-.23-25.84-2.87-35.65-11.19a33.21,33.21,0,0,1-10.54-15.31l-5.48,2.31a54.16,54.16,0,0,0,23,19.93,63.82,63.82,0,0,0,33.33,5.32,78.37,78.37,0,0,0,19.69-4.66,3.08,3.08,0,0,0,2.09-3.69,3,3,0,0,0-3.69-2.1c-19.28,7.31-42,6.8-58.74-6.29a45.94,45.94,0,0,1-10.53-11.54c-1.77-2.77-6.53-1.05-5.49,2.32,4.39,14.16,17,23.81,30.84,27.92a82.43,82.43,0,0,0,24.06,3c6.45,0,13.06-.86,18.94-3.68a21,21,0,0,0,8.12-6.84c1.3-1.86,2.48-4.24,1.75-6.54a4.48,4.48,0,0,0-6.38-2.63c-1.85,1-1.78,3.33-.61,4.71l-.11-2.66c-.23.22-.29.28-.16.18s-.54.26-.09.08a12.1,12.1,0,0,1-1.68.41c-1.47.32-3,.59-4.44.8a79.14,79.14,0,0,1-8.42.66c-5.89.18-11.77-.12-17.64-.42-5.51-.28-11-.61-16.3-2.39a38.58,38.58,0,0,1-12.09-7.05,123.85,123.85,0,0,1-12.28-12.18,3,3,0,1,0-4.24,4.24Z"/><path class="cls-7" d="M322.41,474.52c8.73,4.77,18.82,6.82,28.63,7.84,9.54,1,19.49.39,28.44-3.29a41.53,41.53,0,0,0,13-8.29,3,3,0,0,0-1.32-5c-5.16-1.27-9.86.88-14.45,3a52,52,0,0,1-13.14,3.94,91.39,91.39,0,0,1-13.83,1c-4.75.07-9.76.33-14.46-.45-4.31-.72-8.41-2.49-10.36-6.5l-3.39,4.41a290.2,290.2,0,0,0,29.69,3.47c4.89.31,9.77.5,14.67.56,4.44,0,9.28.38,13.57-1a16.87,16.87,0,0,0,6.11-3.66c1.39-1.26,2.8-2.91,4.43-3.55a3.09,3.09,0,0,0,2.1-3.69,3,3,0,0,0-3.69-2.09,16.88,16.88,0,0,0-5.29,3.42,20.61,20.61,0,0,1-3.93,3.21c-3.4,1.85-7.87,1.42-11.59,1.39a278,278,0,0,1-28.56-1.62c-5.33-.57-10.63-1.32-15.92-2.2a3,3,0,0,0-3.38,4.4c4.63,9.49,16.34,9.88,25.47,9.93,9.95.07,20.25-.31,29.69-3.77,2.53-.93,4.93-2.15,7.41-3.2,2.27-1,4.79-1.82,7.25-1.22l-1.32-5c-12.92,12.3-32.64,11.58-48.84,7.85a54.47,54.47,0,0,1-14-5.05c-3.39-1.86-6.42,3.32-3,5.18Z"/><path class="cls-8" d="M135.47,606.64c15.44,14.8,25.07,45.48,5.2,57.15S96.4,644.84,92.38,625.18s-5.81-52.89,10.83-63.46S120,591.83,135.47,606.64Z"/><path class="cls-8" d="M154.2,617.17c3.49,16.52-.32,42.93-13.42,44.74s-16.6-29.72-13.09-45.88,11.93-41.76,23.12-43.88S150.7,600.65,154.2,617.17Z"/><path class="cls-8" d="M248,708.71c-12.3-5.69-55.28-8-57.3,16s37.49,26.73,56.75,25.44,53.88-5.28,58.57-19.52S260.29,714.4,248,708.71Z"/><path class="cls-8" d="M229.59,697.34c-9.18,3.54-42.49,9.17-37,25s38.76,2.18,49.19-4.34,50.61-22.63,49.84-35.39S238.76,693.79,229.59,697.34Z"/><path class="cls-8" d="M126.23,679c-11.39-2.32-50.45-7.32-53.8,1.88s23.52,28.34,36.32,33.5,48.71,16.94,59.77-1.47S137.62,681.27,126.23,679Z"/><path class="cls-9" d="M256.89,626.4c3,23.56-21,41.79-35,17.44s-35.82,9.14-45.46-18,13.83-40.43,37.88-40.1S253.93,602.83,256.89,626.4Z"/><path class="cls-7" d="M252.87,642c2.95,23.56-21,41.79-35,17.44s-35.82,9.14-45.47-18S186.22,601,210.27,601.3,249.91,618.4,252.87,642Z"/><path class="cls-9" d="M137.38,625.47c12.56-26.12,49.2-28.94,47.44,5.29s42.77,14.35,34.69,48.55-40.94,32.3-65.38,16.05S124.81,651.59,137.38,625.47Z"/><path class="cls-10" d="M205,690.1c-24.16-11.25-27.18-44.91,4.32-43.68S222,606.93,253.53,614s30.18,37.27,15.51,59.93S229.14,701.35,205,690.1Z"/><path class="cls-10" d="M113.28,659.25c4.58-22,36.52-28.41,43.62-1.25s41.76,6.41,43.24,34.26-28.3,30.11-54.2,20.1S108.71,681.25,113.28,659.25Z"/><path class="cls-7" d="M172.41,706.39c-9.71-8,16.82-33.79,41.05-33.69S257.63,642,276.9,646.58s-7.85,27.84-39.12,45.64S182.12,714.39,172.41,706.39Z"/><path class="cls-9" d="M179.87,726.32c-13.5-11,5.64-41.79,31.94-39.72s36.43-35.66,59-28.3,1.87,34.91-25.38,55.15S193.38,737.31,179.87,726.32Z"/></svg>
